<mxfile host="65bd71144e">
    <diagram id="gE05elB4v5wKdN8an8o_" name="Page-1">
        <mxGraphModel dx="824" dy="682" grid="1" gridSize="10" guides="1" tooltips="1" connect="1" arrows="1" fold="1" page="1" pageScale="1" pageWidth="850" pageHeight="1100" math="0" shadow="0">
            <root>
                <mxCell id="0"/>
                <mxCell id="1" parent="0"/>
                <mxCell id="5" value="内部表現に変換" style="rounded=0;whiteSpace=wrap;html=1;" vertex="1" parent="1">
                    <mxGeometry x="145" y="80" width="150" height="30" as="geometry"/>
                </mxCell>
                <mxCell id="7" value="パーサジェネレータ" style="text;html=1;strokeColor=none;fillColor=none;align=center;verticalAlign=middle;whiteSpace=wrap;rounded=0;" vertex="1" parent="1">
                    <mxGeometry x="160" y="30" width="120" height="30" as="geometry"/>
                </mxCell>
                <mxCell id="10" value="中間表現を最適化" style="rounded=0;whiteSpace=wrap;html=1;" vertex="1" parent="1">
                    <mxGeometry x="465" y="200" width="150" height="30" as="geometry"/>
                </mxCell>
                <mxCell id="11" value="パーサベイカ" style="text;html=1;strokeColor=none;fillColor=none;align=center;verticalAlign=middle;whiteSpace=wrap;rounded=0;" vertex="1" parent="1">
                    <mxGeometry x="480" y="30" width="120" height="30" as="geometry"/>
                </mxCell>
                <mxCell id="12" value="pcake ファイルの字句解析" style="rounded=0;whiteSpace=wrap;html=1;" vertex="1" parent="1">
                    <mxGeometry x="465" y="80" width="150" height="30" as="geometry"/>
                </mxCell>
                <mxCell id="17" value="中間表現のロード" style="rounded=0;whiteSpace=wrap;html=1;" vertex="1" parent="1">
                    <mxGeometry x="465" y="340" width="150" height="30" as="geometry"/>
                </mxCell>
                <mxCell id="19" value="pcake ファイルの構文解析" style="rounded=0;whiteSpace=wrap;html=1;" vertex="1" parent="1">
                    <mxGeometry x="465" y="120" width="150" height="30" as="geometry"/>
                </mxCell>
                <mxCell id="29" value="中間表現に変換" style="rounded=0;whiteSpace=wrap;html=1;" vertex="1" parent="1">
                    <mxGeometry x="465" y="160" width="150" height="30" as="geometry"/>
                </mxCell>
                <mxCell id="30" value="パーサの生成" style="rounded=0;whiteSpace=wrap;html=1;" vertex="1" parent="1">
                    <mxGeometry x="145" y="160" width="150" height="30" as="geometry"/>
                </mxCell>
                <mxCell id="31" value="中間表現のエクスポート" style="rounded=0;whiteSpace=wrap;html=1;" vertex="1" parent="1">
                    <mxGeometry x="465" y="240" width="150" height="30" as="geometry"/>
                </mxCell>
                <mxCell id="35" value="内部表現の最適化" style="rounded=0;whiteSpace=wrap;html=1;" vertex="1" parent="1">
                    <mxGeometry x="145" y="120" width="150" height="30" as="geometry"/>
                </mxCell>
                <mxCell id="37" value="内部表現" style="rounded=1;whiteSpace=wrap;html=1;arcSize=50;" vertex="1" parent="1">
                    <mxGeometry x="300" y="390" width="140" height="30" as="geometry"/>
                </mxCell>
                <mxCell id="38" value="AST" style="rounded=1;whiteSpace=wrap;html=1;arcSize=50;" vertex="1" parent="1">
                    <mxGeometry x="300" y="470" width="140" height="30" as="geometry"/>
                </mxCell>
                <mxCell id="42" value="パース" style="rounded=0;whiteSpace=wrap;html=1;" vertex="1" parent="1">
                    <mxGeometry x="295" y="430" width="150" height="30" as="geometry"/>
                </mxCell>
                <mxCell id="43" value="" style="rounded=1;whiteSpace=wrap;html=1;arcSize=50;" vertex="1" parent="1">
                    <mxGeometry x="305" y="320" width="140" height="30" as="geometry"/>
                </mxCell>
            </root>
        </mxGraphModel>
    </diagram>
</mxfile>